<svg id="Layer_1" data-name="Layer 1" xmlns="http://www.w3.org/2000/svg" xmlns:xlink="http://www.w3.org/1999/xlink" viewBox="0 0 256 256"><defs><style>.cls-1,.cls-2{fill:none;stroke-linecap:round;stroke-miterlimit:10;stroke-width:8px;}.cls-1{stroke:#10284b;}.cls-2{stroke:#ffcc06;}.cls-3{fill:url(#radial-gradient);}</style><radialGradient id="radial-gradient" cx="127.82" cy="127.7" r="100" gradientTransform="translate(0.18 0.3)" gradientUnits="userSpaceOnUse"><stop offset="0" stop-color="#10284b"/><stop offset="0.23" stop-color="#10284b" stop-opacity="0.95"/><stop offset="0.46" stop-color="#10284b" stop-opacity="0.79"/><stop offset="0.69" stop-color="#10284b" stop-opacity="0.53"/><stop offset="0.92" stop-color="#10284b" stop-opacity="0.16"/><stop offset="1" stop-color="#10284b" stop-opacity="0"/></radialGradient></defs><path class="cls-1" d="M23.36,189c13.67-47.14,34.47-47.63,105.1-61"/><path class="cls-2" d="M189.35,232.85c-47.14-13.67-47.63-34.47-61-105.11"/><path class="cls-1" d="M232.64,66.72c-13.67,47.14-34.47,47.63-105.1,61"/><path class="cls-2" d="M67.49,23.15c47.14,13.67,47.63,34.47,61,105.11"/><path class="cls-1" d="M233.25,188.51c-47.66,11.73-58.48-6-105.39-60.52"/><path class="cls-2" d="M188.26,22.81c11.74,47.66-6,58.48-60.52,105.39"/><path class="cls-1" d="M22.75,68.38c47.66-11.73,58.48,6,105.39,60.52"/><path class="cls-2" d="M67.6,233.19c-11.74-47.66,6-58.48,60.52-105.39"/><path class="cls-1" d="M127.74,6.82c34,35.41,24,53.67.28,121.53"/><path class="cls-2" d="M6.73,128.63c35.41-34,53.67-24,121.53-.28"/><path class="cls-1" d="M129,249.18c-34-35.41-24-53.67-.28-121.53"/><path class="cls-2" d="M249.27,127.94c-35.41,34-53.67,24-121.53.28"/><path class="cls-1" d="M50.17,221.34c-3.28-49,16.1-56.55,77.9-93.28"/><path class="cls-2" d="M221.17,205.81c-49,3.28-56.55-16.1-93.28-77.9"/><path class="cls-1" d="M205,34.89c3.28,49-16.1,56.55-77.9,93.28"/><path class="cls-2" d="M34.93,50.44c49-3.28,56.55,16.1,93.28,77.9"/><path class="cls-1" d="M247.25,149.13c-40.77,27.33-57,14.33-119.73-20.83"/><path class="cls-2" d="M148.3,8.81c27.33,40.77,14.33,57-20.82,119.73"/><path class="cls-1" d="M8.35,108.25c40.78-27.33,57-14.33,119.74,20.82"/><path class="cls-2" d="M106.87,247.78c-27.33-40.78-14.33-57,20.82-119.73"/><path class="cls-1" d="M86,14.48C130,36.13,126.88,56.7,127.79,128.59"/><path class="cls-2" d="M13.91,170.34C35.56,126.28,56.13,129.42,128,128.5"/><path class="cls-1" d="M170,241.82c-44-21.65-40.92-42.22-41.83-114.11"/><path class="cls-2" d="M241.58,86.73c-21.64,44.06-42.21,40.93-114.1,41.84"/><path class="cls-1" d="M86.52,242.26c-19.83-44.9-4.21-58.65,41.3-114.3"/><path class="cls-2" d="M241.89,169.18C197,189,183.25,173.39,127.6,127.88"/><path class="cls-1" d="M168.27,14.09C188.1,59,172.48,72.74,127,128.39"/><path class="cls-2" d="M13.75,86.88c44.9-19.84,58.65-4.21,114.3,41.3"/><path class="cls-1" d="M247,107c-29,39.63-48.68,33-119.63,21.39"/><path class="cls-2" d="M106.05,9c39.62,29,33,48.68,21.38,119.63"/><path class="cls-1" d="M8.55,150.29c29-39.63,48.68-33,119.63-21.39"/><path class="cls-2" d="M148.85,247.71c-39.63-29-33-48.68-21.39-119.64"/><path class="cls-1" d="M49.4,35.64c48.81,5.27,52.9,25.67,78.34,92.91"/><path class="cls-2" d="M35,206.73c5.27-48.8,25.68-52.89,92.91-78.33"/><path class="cls-1" d="M206.13,220.51c-48.8-5.27-52.89-25.67-78.33-92.91"/><path class="cls-2" d="M220.36,50.3c-5.28,48.8-25.68,52.89-92.92,78.34"/><circle class="cls-3" cx="128" cy="128" r="100"/></svg>